<mxfile host="app.diagrams.net" modified="2022-06-05T11:28:46.996Z" agent="5.0 (Macintosh; Intel Mac OS X 10_15_7) AppleWebKit/537.36 (KHTML, like Gecko) Chrome/102.0.0.0 Safari/537.36" etag="QDNQ-yoPgtn2nc1w4xPZ" version="18.2.1" type="github">
  <diagram id="jk84KoCiqGRbvonOO5nR" name="Page-1">
    <mxGraphModel dx="171" dy="237" grid="0" gridSize="10" guides="1" tooltips="1" connect="1" arrows="1" fold="1" page="1" pageScale="1" pageWidth="550" pageHeight="190" background="#EFF1F3" math="0" shadow="0">
      <root>
        <mxCell id="0" />
        <mxCell id="1" parent="0" />
        <mxCell id="XSbDL2rr6Gyu1OlXZJMn-3" value="&lt;font style=&quot;background-color: rgb(239 , 241 , 243) ; font-size: 10px&quot;&gt;&lt;span style=&quot;font-size: 10px;&quot;&gt;&lt;font color=&quot;#c89932&quot;&gt;0&lt;/font&gt;&lt;/span&gt;&lt;span style=&quot;color: rgb(74 , 145 , 155) ; font-size: 10px&quot;&gt; - 0 00000000&amp;nbsp;&lt;/span&gt;&lt;font color=&quot;#4a919b&quot; style=&quot;font-size: 10px&quot;&gt;00000000&lt;/font&gt;&lt;font style=&quot;font-size: 10px&quot;&gt;&amp;nbsp;&lt;/font&gt;&lt;font color=&quot;#4a919b&quot;&gt;&lt;span style=&quot;font-size: 10px;&quot;&gt;00000000&amp;nbsp;&lt;/span&gt;&lt;font style=&quot;font-size: 10px&quot;&gt;00000000&lt;/font&gt;&lt;font style=&quot;font-size: 10px&quot;&gt;&amp;nbsp;&lt;/font&gt;&lt;font style=&quot;font-size: 10px&quot;&gt;00000000 -&amp;nbsp;&lt;/font&gt;&lt;/font&gt;&lt;font color=&quot;#f19c99&quot;&gt;&lt;span style=&quot;font-size: 10px;&quot;&gt;00000000&lt;/span&gt;&lt;span style=&quot;font-size: 10px;&quot;&gt;&amp;nbsp;00&lt;/span&gt;&lt;/font&gt;&lt;span style=&quot;color: rgb(90 , 110 , 171) ; font-size: 10px&quot;&gt;&amp;nbsp;- 0000&amp;nbsp;&lt;/span&gt;&lt;font color=&quot;#5a6eab&quot; style=&quot;font-size: 10px&quot;&gt;00000000&lt;/font&gt;&lt;/font&gt;" style="text;html=1;strokeColor=none;fillColor=none;align=center;verticalAlign=middle;whiteSpace=wrap;rounded=0;" parent="1" vertex="1">
          <mxGeometry x="35.88" y="84" width="487" height="24" as="geometry" />
        </mxCell>
        <mxCell id="cjVENmCrDsrbWY_3om6L-1" value="&lt;font&gt;&lt;font color=&quot;#5c5c5c&quot; style=&quot;font-size: 14px&quot;&gt;雪花算法&lt;br&gt;snowflake&lt;/font&gt;&lt;br&gt;&lt;/font&gt;" style="text;html=1;strokeColor=none;fillColor=none;align=center;verticalAlign=middle;whiteSpace=wrap;rounded=0;" parent="1" vertex="1">
          <mxGeometry x="170" y="151" width="200" height="35" as="geometry" />
        </mxCell>
        <mxCell id="TQc7ubPpzNLARLeVcl0p-5" value="" style="shape=curlyBracket;whiteSpace=wrap;html=1;rounded=1;fontColor=#C89932;rotation=90;strokeWidth=2;strokeColor=#4A919B;" parent="1" vertex="1">
          <mxGeometry x="190.88" y="-69" width="20" height="286" as="geometry" />
        </mxCell>
        <mxCell id="TQc7ubPpzNLARLeVcl0p-6" value="&lt;font color=&quot;#4a919b&quot;&gt;41位 时间戳&lt;/font&gt;" style="text;html=1;strokeColor=none;fillColor=none;align=center;verticalAlign=middle;whiteSpace=wrap;rounded=0;fontSize=2;fontColor=#C89932;" parent="1" vertex="1">
          <mxGeometry x="156.38" y="31" width="89" height="30" as="geometry" />
        </mxCell>
        <mxCell id="TQc7ubPpzNLARLeVcl0p-7" value="" style="shape=curlyBracket;whiteSpace=wrap;html=1;rounded=1;flipH=1;fontSize=2;fontColor=#4A919B;strokeColor=#C89932;strokeWidth=2;rotation=90;" parent="1" vertex="1">
          <mxGeometry x="39.88" y="104" width="12" height="12" as="geometry" />
        </mxCell>
        <mxCell id="TQc7ubPpzNLARLeVcl0p-8" value="&lt;font&gt;1位 不用&lt;/font&gt;" style="text;html=1;strokeColor=none;fillColor=none;align=center;verticalAlign=middle;whiteSpace=wrap;rounded=0;fontSize=2;fontColor=#C89932;" parent="1" vertex="1">
          <mxGeometry x="15.879999999999999" y="116" width="60" height="30" as="geometry" />
        </mxCell>
        <mxCell id="TQc7ubPpzNLARLeVcl0p-9" value="" style="shape=curlyBracket;whiteSpace=wrap;html=1;rounded=1;flipH=1;fontSize=2;fontColor=#4A919B;strokeColor=#F19C99;strokeWidth=2;rotation=90;" parent="1" vertex="1">
          <mxGeometry x="385" y="75.5" width="12" height="69" as="geometry" />
        </mxCell>
        <mxCell id="TQc7ubPpzNLARLeVcl0p-10" value="&lt;font color=&quot;#f19c99&quot;&gt;10位 工作机器id&lt;/font&gt;" style="text;html=1;strokeColor=none;fillColor=none;align=center;verticalAlign=middle;whiteSpace=wrap;rounded=0;fontSize=2;fontColor=#C89932;" parent="1" vertex="1">
          <mxGeometry x="343" y="116" width="96" height="30" as="geometry" />
        </mxCell>
        <mxCell id="TQc7ubPpzNLARLeVcl0p-11" value="" style="shape=curlyBracket;whiteSpace=wrap;html=1;rounded=1;fontColor=#C89932;rotation=90;strokeWidth=2;strokeColor=#5A6EAB;" parent="1" vertex="1">
          <mxGeometry x="470" y="29.5" width="20" height="89" as="geometry" />
        </mxCell>
        <mxCell id="TQc7ubPpzNLARLeVcl0p-12" value="&lt;font color=&quot;#5a6eab&quot;&gt;12位&amp;nbsp; 序列号&lt;/font&gt;" style="text;html=1;strokeColor=none;fillColor=none;align=center;verticalAlign=middle;whiteSpace=wrap;rounded=0;fontSize=2;fontColor=#C89932;" parent="1" vertex="1">
          <mxGeometry x="435.5" y="31" width="89" height="30" as="geometry" />
        </mxCell>
      </root>
    </mxGraphModel>
  </diagram>
</mxfile>
